<svg width="22" height="22" viewBox="0 0 22 22" fill="none" xmlns="http://www.w3.org/2000/svg">
  <path d="M11.0833 2.23608C9.9434 2.23608 8.81461 2.46061 7.76144 2.89685C6.70826 3.33309 5.75133 3.9725 4.94526 4.77856C3.31734 6.40648 2.40279 8.61441 2.40279 10.9166C2.40279 13.2189 3.31734 15.4268 4.94526 17.0547C5.75133 17.8608 6.70826 18.5002 7.76144 18.9364C8.81461 19.3727 9.9434 19.5972 11.0833 19.5972C13.3856 19.5972 15.5935 18.6826 17.2214 17.0547C18.8493 15.4268 19.7639 13.2189 19.7639 10.9166C19.7639 9.77669 19.5394 8.64791 19.1031 7.59474C18.6669 6.54156 18.0275 5.58462 17.2214 4.77856C16.4154 3.9725 15.4584 3.33309 14.4052 2.89685C13.3521 2.46061 12.2233 2.23608 11.0833 2.23608ZM11.0833 7.78296C12.484 8.69293 14.1179 9.1783 15.7882 9.18053C16.4653 9.18053 17.1163 9.1024 17.7413 8.95483C17.9236 9.57115 18.0278 10.2309 18.0278 10.9166C18.0278 14.7448 14.9115 17.8611 11.0833 17.8611C8.47918 17.8611 6.21355 16.4201 5.00695 14.2934L6.52605 12.6528V11.7847C6.52605 11.4969 6.64037 11.2209 6.84386 11.0174C7.04735 10.8139 7.32334 10.6996 7.61112 10.6996C7.8989 10.6996 8.17489 10.8139 8.37838 11.0174C8.58187 11.2209 8.69619 11.4969 8.69619 11.7847V12.6528H11.0833M14.5556 10.6996C14.2678 10.6996 13.9918 10.8139 13.7883 11.0174C13.5848 11.2209 13.4705 11.4969 13.4705 11.7847C13.4705 12.0725 13.5848 12.3485 13.7883 12.552C13.9918 12.7554 14.2678 12.8698 14.5556 12.8698C14.8433 12.8698 15.1193 12.7554 15.3228 12.552C15.5263 12.3485 15.6406 12.0725 15.6406 11.7847C15.6406 11.4969 15.5263 11.2209 15.3228 11.0174C15.1193 10.8139 14.8433 10.6996 14.5556 10.6996Z" fill="black"/>
</svg>